<svg xmlns="http://www.w3.org/2000/svg" viewBox="0 0 512 512">
  <!-- Fundo arredondado -->
  <rect width="512" height="512" rx="60" fill="#2F2F87"/>

  <!-- Silhueta mãe e bebê (detalhada) -->
  <path d="M290 110
           C270 100, 240 120, 230 150
           C220 170, 220 190, 235 220
           C245 240, 250 260, 250 280
           C245 310, 230 330, 230 350
           C230 370, 250 390, 270 390
           C290 390, 310 370, 310 340
           C310 320, 300 300, 280 280
           M230 150
           C225 140, 230 130, 240 125
           C245 120, 250 115, 260 120
           C270 125, 280 135, 285 145
           C290 155, 295 165, 290 175
           C285 185, 275 190, 265 190
           C255 190, 245 185, 240 175
           Z
           M300 260
           C320 260, 340 280, 340 300
           C340 320, 320 340, 300 340
           C280 340, 260 320, 260 300
           C260 280, 280 260, 300 260Z"
        fill="none" stroke="white" stroke-width="6" stroke-linecap="round" stroke-linejoin="round"/>
</svg>